%TF.GenerationSoftware,KiCad,Pcbnew,6.0.2+dfsg-1*%
%TF.CreationDate,2023-01-17T16:47:03+01:00*%
%TF.ProjectId,PCB_V1,5043425f-5631-42e6-9b69-6361645f7063,rev?*%
%TF.SameCoordinates,Original*%
%TF.FileFunction,Copper,L2,Bot*%
%TF.FilePolarity,Positive*%
%FSLAX46Y46*%
G04 Gerber Fmt 4.6, Leading zero omitted, Abs format (unit mm)*
G04 Created by KiCad (PCBNEW 6.0.2+dfsg-1) date 2023-01-17 16:47:03*
%MOMM*%
%LPD*%
G01*
G04 APERTURE LIST*
%TA.AperFunction,ComponentPad*%
%ADD10C,1.700000*%
%TD*%
%TA.AperFunction,ComponentPad*%
%ADD11R,1.700000X1.700000*%
%TD*%
%TA.AperFunction,ComponentPad*%
%ADD12O,1.700000X1.700000*%
%TD*%
%TA.AperFunction,ComponentPad*%
%ADD13C,1.600000*%
%TD*%
%TA.AperFunction,ComponentPad*%
%ADD14O,1.600000X1.600000*%
%TD*%
%TA.AperFunction,ComponentPad*%
%ADD15R,3.000000X3.000000*%
%TD*%
%TA.AperFunction,ComponentPad*%
%ADD16C,3.000000*%
%TD*%
%TA.AperFunction,ComponentPad*%
%ADD17R,2.000000X2.000000*%
%TD*%
%TA.AperFunction,ComponentPad*%
%ADD18O,2.000000X2.000000*%
%TD*%
%TA.AperFunction,Conductor*%
%ADD19C,1.000000*%
%TD*%
G04 APERTURE END LIST*
D10*
%TO.P,U1,8,VCC*%
%TO.N,VCC*%
X177370000Y-66010000D03*
%TO.P,U1,7,DIS*%
%TO.N,Analog_Calib*%
X177370000Y-63470000D03*
%TO.P,U1,6,THR*%
%TO.N,Electrode_2*%
X177370000Y-60930000D03*
%TO.P,U1,5,CV*%
%TO.N,unconnected-(U1-Pad5)*%
X177370000Y-58390000D03*
%TO.P,U1,4,R*%
%TO.N,VCC*%
X169430000Y-58390000D03*
%TO.P,U1,3,Q*%
%TO.N,NE555_Output*%
X169430000Y-60930000D03*
%TO.P,U1,2,TR*%
%TO.N,Electrode_2*%
X169430000Y-63470000D03*
D11*
%TO.P,U1,1,GND*%
%TO.N,GND*%
X169430000Y-66010000D03*
%TD*%
%TO.P,J2,1,Pin_1*%
%TO.N,NE555_Output*%
X161800000Y-61060000D03*
D12*
%TO.P,J2,2,Pin_2*%
%TO.N,unconnected-(J2-Pad2)*%
X161800000Y-63600000D03*
%TO.P,J2,3,Pin_3*%
%TO.N,GND*%
X161800000Y-66140000D03*
%TO.P,J2,4,Pin_4*%
%TO.N,Analog_Calib*%
X161800000Y-68680000D03*
%TD*%
D13*
%TO.P,R3,1*%
%TO.N,VCC*%
X177280000Y-71800000D03*
D14*
%TO.P,R3,2*%
%TO.N,Analog_Calib*%
X167120000Y-71800000D03*
%TD*%
D15*
%TO.P,J3,1,Pin_1*%
%TO.N,GND*%
X170460000Y-49400000D03*
D16*
%TO.P,J3,2,Pin_2*%
%TO.N,VCC*%
X175540000Y-49400000D03*
%TD*%
D11*
%TO.P,J1,1,Pin_1*%
%TO.N,Electrode_2*%
X181775000Y-57550000D03*
D12*
%TO.P,J1,2,Pin_2*%
%TO.N,Analog_Calib*%
X181775000Y-60090000D03*
%TD*%
D17*
%TO.P,C1,1*%
%TO.N,GND*%
X187042500Y-42500000D03*
D18*
%TO.P,C1,2*%
%TO.N,Electrode_2*%
X187042500Y-57500000D03*
%TD*%
D15*
%TO.P,Speaker1,1,Pin_1*%
%TO.N,NE555_Output*%
X155400000Y-61060000D03*
D16*
%TO.P,Speaker1,2,Pin_2*%
%TO.N,GND*%
X155400000Y-66140000D03*
%TD*%
D19*
%TO.N,GND*%
X155400000Y-66140000D02*
X161800000Y-66140000D01*
X177360000Y-42500000D02*
X170460000Y-49400000D01*
X159000000Y-49400000D02*
X151000000Y-57400000D01*
X170460000Y-49400000D02*
X159000000Y-49400000D01*
X151000000Y-57400000D02*
X151000000Y-61740000D01*
X187042500Y-42500000D02*
X177360000Y-42500000D01*
X161800000Y-66140000D02*
X169300000Y-66140000D01*
X151000000Y-61740000D02*
X155400000Y-66140000D01*
X169300000Y-66140000D02*
X169430000Y-66010000D01*
%TO.N,Electrode_2*%
X169430000Y-63470000D02*
X174830000Y-63470000D01*
X180750000Y-57550000D02*
X177370000Y-60930000D01*
X186992500Y-57550000D02*
X187042500Y-57500000D01*
X181775000Y-57550000D02*
X180750000Y-57550000D01*
X181775000Y-57550000D02*
X186992500Y-57550000D01*
X174830000Y-63470000D02*
X177370000Y-60930000D01*
%TO.N,Analog_Calib*%
X181775000Y-60090000D02*
X180750000Y-60090000D01*
X177370000Y-63470000D02*
X173440000Y-67400000D01*
X180750000Y-60090000D02*
X177370000Y-63470000D01*
X171520000Y-67400000D02*
X167120000Y-71800000D01*
X167120000Y-71800000D02*
X164920000Y-71800000D01*
X173440000Y-67400000D02*
X171520000Y-67400000D01*
X164920000Y-71800000D02*
X161800000Y-68680000D01*
%TO.N,NE555_Output*%
X169430000Y-60930000D02*
X161930000Y-60930000D01*
X161930000Y-60930000D02*
X161800000Y-61060000D01*
X155400000Y-61060000D02*
X161800000Y-61060000D01*
%TO.N,VCC*%
X170410000Y-58390000D02*
X175540000Y-53260000D01*
X175540000Y-53260000D02*
X175540000Y-49400000D01*
X190200000Y-55400000D02*
X184200000Y-49400000D01*
X181990000Y-66010000D02*
X190200000Y-57800000D01*
X169430000Y-58390000D02*
X170410000Y-58390000D01*
X177370000Y-66010000D02*
X177370000Y-71710000D01*
X184200000Y-49400000D02*
X175540000Y-49400000D01*
X177370000Y-71710000D02*
X177280000Y-71800000D01*
X190200000Y-57800000D02*
X190200000Y-55400000D01*
X177370000Y-66010000D02*
X181990000Y-66010000D01*
%TD*%
M02*
