M48
; DRILL file {KiCad 6.0.2+dfsg-1} date mar. 17 janv. 2023 16:47:13
; FORMAT={-:-/ absolute / inch / decimal}
; #@! TF.CreationDate,2023-01-17T16:47:13+01:00
; #@! TF.GenerationSoftware,Kicad,Pcbnew,6.0.2+dfsg-1
; #@! TF.FileFunction,Plated,1,2,PTH
FMAT,2
INCH
; #@! TA.AperFunction,Plated,PTH,ComponentDrill
T1C0.0315
; #@! TA.AperFunction,Plated,PTH,ComponentDrill
T2C0.0394
; #@! TA.AperFunction,Plated,PTH,ComponentDrill
T3C0.0598
%
G90
G05
T1
X6.5795Y-2.8268
X6.9795Y-2.8268
T2
X6.3701Y-2.4039
X6.3701Y-2.5039
X6.3701Y-2.6039
X6.3701Y-2.7039
X6.6705Y-2.2988
X6.6705Y-2.3988
X6.6705Y-2.4988
X6.6705Y-2.5988
X6.9831Y-2.2988
X6.9831Y-2.3988
X6.9831Y-2.4988
X6.9831Y-2.5988
X7.1565Y-2.2657
X7.1565Y-2.3657
X7.3639Y-1.6732
X7.3639Y-2.2638
T3
X6.1181Y-2.4039
X6.1181Y-2.6039
X6.711Y-1.9449
X6.911Y-1.9449
T0
M30
